<?xml version="1.0" encoding="UTF-8" standalone="no"?><!DOCTYPE svg PUBLIC "-//W3C//DTD SVG 1.1//EN" "http://www.w3.org/Graphics/SVG/1.1/DTD/svg11.dtd"><svg width="100%" height="100%" viewBox="0 0 132 40" version="1.1" xmlns="http://www.w3.org/2000/svg" xmlns:xlink="http://www.w3.org/1999/xlink" xml:space="preserve" style="fill-rule:evenodd;clip-rule:evenodd;stroke-linejoin:round;stroke-miterlimit:1.41421;"><path d="M22.5,35c0,0 -10.61,-18.188 -15.307,-26.24c-0.451,-0.774 -0.454,-1.729 -0.008,-2.505c0.446,-0.776 1.272,-1.255 2.168,-1.255c6.404,0 18.281,0 24.541,0c0.873,0 1.682,0.455 2.136,1.2c0.453,0.745 0.486,1.673 0.085,2.448c-0.899,1.739 -1.781,3.447 -1.781,3.447c0,0 -7.387,0 -10.234,0c-0.292,0 -0.572,0.116 -0.778,0.323c-0.206,0.206 -0.322,0.486 -0.322,0.777c0,0.402 0,0.856 0,1.258c0,0.608 0.492,1.1 1.1,1.1c2.604,0 8.931,0 8.931,0l-3.86,6.535c0,0 -3.297,0 -5.071,0c-0.292,0 -0.572,0.116 -0.778,0.322c-0.206,0.206 -0.322,0.486 -0.322,0.778c0,0.343 0,0.721 0,1.064c0,0.292 0.116,0.572 0.322,0.778c0.206,0.206 0.486,0.322 0.778,0.322c1.463,0 3.868,0 3.868,0l-5.468,9.648Z" style="fill:#000;"/><text x="38px" y="24.577px" style="font-family:'ArialMT', 'Arial', sans-serif;font-size:18.148px;fill:#000;">eventmap</text></svg>